{
	"asset":{
		"generator":"Khronos glTF Blender I/O v4.4.56",
		"version":"2.0"
	},
	"scene":0,
	"scenes":[
		{
			"name":"Scene",
			"nodes":[
				0
			]
		}
	],
	"nodes":[
		{
			"mesh":0,
			"name":"Cube_2x2x6",
			"translation":[
				0,
				3,
				0
			]
		}
	],
	"meshes":[
		{
			"name":"Cube.006",
			"primitives":[
				{
					"attributes":{
						"POSITION":0,
						"NORMAL":1
					},
					"indices":2
				}
			]
		}
	],
	"accessors":[
		{
			"bufferView":0,
			"componentType":5126,
			"count":1168,
			"max":[
				1,
				3.000000238418579,
				1
			],
			"min":[
				-1,
				-3.000000238418579,
				-1
			],
			"type":"VEC3"
		},
		{
			"bufferView":1,
			"componentType":5126,
			"count":1168,
			"type":"VEC3"
		},
		{
			"bufferView":2,
			"componentType":5123,
			"count":3780,
			"type":"SCALAR"
		}
	],
	"bufferViews":[
		{
			"buffer":0,
			"byteLength":14016,
			"byteOffset":0,
			"target":34962
		},
		{
			"buffer":0,
			"byteLength":14016,
			"byteOffset":14016,
			"target":34962
		},
		{
			"buffer":0,
			"byteLength":7560,
			"byteOffset":28032,
			"target":34963
		}
	],
	"buffers":[
		{
			"byteLength":35592,
			"uri":"cube_2x2x6.bin"
		}
	]
}
