{
	"asset":{
		"generator":"Khronos glTF Blender I/O v4.3.47",
		"version":"2.0"
	},
	"scene":0,
	"scenes":[
		{
			"name":"Scene",
			"nodes":[
				0
			]
		}
	],
	"nodes":[
		{
			"mesh":0,
			"name":"Cube"
		}
	],
	"materials":[
		{
			"doubleSided":true,
			"name":"Material",
			"pbrMetallicRoughness":{
				"baseColorFactor":[
					0.03106330707669258,
					0.03106330707669258,
					0.03106330707669258,
					1
				],
				"metallicFactor":0,
				"roughnessFactor":0.5
			}
		}
	],
	"meshes":[
		{
			"name":"Cube",
			"primitives":[
				{
					"attributes":{
						"POSITION":0,
						"NORMAL":1,
						"TEXCOORD_0":2
					},
					"indices":3,
					"material":0
				}
			]
		}
	],
	"accessors":[
		{
			"bufferView":0,
			"componentType":5126,
			"count":923,
			"max":[
				2.749070167541504,
				0.922322690486908,
				1.7178406715393066
			],
			"min":[
				-2.749070167541504,
				-0.3104488253593445,
				-1.0059720277786255
			],
			"type":"VEC3"
		},
		{
			"bufferView":1,
			"componentType":5126,
			"count":923,
			"type":"VEC3"
		},
		{
			"bufferView":2,
			"componentType":5126,
			"count":923,
			"type":"VEC2"
		},
		{
			"bufferView":3,
			"componentType":5123,
			"count":4746,
			"type":"SCALAR"
		}
	],
	"bufferViews":[
		{
			"buffer":0,
			"byteLength":11076,
			"byteOffset":0,
			"target":34962
		},
		{
			"buffer":0,
			"byteLength":11076,
			"byteOffset":11076,
			"target":34962
		},
		{
			"buffer":0,
			"byteLength":7384,
			"byteOffset":22152,
			"target":34962
		},
		{
			"buffer":0,
			"byteLength":9492,
			"byteOffset":29536,
			"target":34963
		}
	],
	"buffers":[
		{
			"byteLength":39028,
			"uri":"space-ship.bin"
		}
	]
}
