{
	"asset":{
		"generator":"Khronos glTF Blender I/O v4.3.47",
		"version":"2.0"
	},
	"scene":0,
	"scenes":[
		{
			"name":"Scene",
			"nodes":[
				0
			]
		}
	],
	"nodes":[
		{
			"mesh":0,
			"name":"Landscape.001"
		}
	],
	"meshes":[
		{
			"name":"Landscape.001",
			"primitives":[
				{
					"attributes":{
						"POSITION":0,
						"NORMAL":1
					},
					"indices":2
				}
			]
		}
	],
	"accessors":[
		{
			"bufferView":0,
			"componentType":5126,
			"count":247432,
			"max":[
				20,
				12.696189880371094,
				20
			],
			"min":[
				-20,
				0,
				-20
			],
			"type":"VEC3"
		},
		{
			"bufferView":1,
			"componentType":5126,
			"count":247432,
			"type":"VEC3"
		},
		{
			"bufferView":2,
			"componentType":5125,
			"count":390150,
			"type":"SCALAR"
		}
	],
	"bufferViews":[
		{
			"buffer":0,
			"byteLength":2969184,
			"byteOffset":0,
			"target":34962
		},
		{
			"buffer":0,
			"byteLength":2969184,
			"byteOffset":2969184,
			"target":34962
		},
		{
			"buffer":0,
			"byteLength":1560600,
			"byteOffset":5938368,
			"target":34963
		}
	],
	"buffers":[
		{
			"byteLength":7498968,
			"uri":"terrain.bin"
		}
	]
}
